# xmcd
#
# Track frame offsets:
# 150
# 21268
# 28328
# 54866
# 80175
# 84454
# 94629
# 100488
# 174481
# 205773
# 227886
# 294097
#
# Disc length: 4356 seconds
#
#
# Revision: 7
# Processed by: cddbd v1.5.2PL0 Copyright (c) Steve Scherf et al.
# Submitted via: FreeRIP 2.96 
#
DISCID=9911020c
DTITLE=Roger Waters - In The Flesh [CD1]
DYEAR=2000
DGENRE=Progressive Rock
TTITLE0=In The Flesh
TTITLE1=The Happiest Days of Our Lives
TTITLE2=Another Brick In The Wall, Part 2
TTITLE3=Mother
TTITLE4=Get Your Filthy Hands Off My Desert
TTITLE5=Southampton Dock
TTITLE6=Pigs On The Wings, Part 1
TTITLE7=Dogs
TTITLE8=Welcome To The Machine
TTITLE9=Wish You Were Here
TTITLE10=Shine On You Crazy Diamond (Parts 1-8)
TTITLE11=Set The Controls For The Heart Of The Sun
EXTD=
EXTT0=
EXTT1=
EXTT2=
EXTT3=
EXTT4=
EXTT5=
EXTT6=
EXTT7=
EXTT8=
EXTT9=
EXTT10=
EXTT11=
PLAYORDER=
